# xmcd CD database file
#
# Track frame offsets:
#	150
#	14466
#	28471
#	44688
#	58256
#	77513
#	99882
#	107874
#	121801
#	143213
#	156303
#	166973
#	180254
#	196881
#	210554
#
# Disc length: 2975 seconds
#
# Revision: 0
# Processed by: cddbd v1.5.2PL0 Copyright (c) Steve Scherf et al.
# Submitted via: CDex 1.70beta3
#
DISCID=ca0b9d0f
DTITLE=John Denver - The Very Best Of JOHN DENVER Original Greatest Hit
DYEAR=1975
DGENRE=Country
TTITLE0=Thank God I'm A Coutry Boy
TTITLE1=Take Me Home, Coutry Roads
TTITLE2=Farewell Andromeda (Welcome To My Morning)
TTITLE3=Annie's Song
TTITLE4=Rocky Mountain High
TTITLE5=Sweet Surrender
TTITLE6=The Music Is You
TTITLE7=Rhymes And Reasons
TTITLE8=My Sweet Lady
TTITLE9=Annie's Ohter Song
TTITLE10=Mother Nature's Son
TTITLE11=Summer
TTITLE12=Matthew
TTITLE13=Roky Moutain Suite
TTITLE14=This Old Guitar
EXTD=YEAR: 1975
EXTT0=
EXTT1=
EXTT2=
EXTT3=
EXTT4=
EXTT5=
EXTT6=
EXTT7=
EXTT8=
EXTT9=
EXTT10=
EXTT11=
EXTT12=
EXTT13=
EXTT14=
PLAYORDER=
